<?xml version="1.0" encoding="utf-8"?>
<!-- Generator: Adobe Illustrator 17.0.0, SVG Export Plug-In . SVG Version: 6.00 Build 0)  -->
<!DOCTYPE svg PUBLIC "-//W3C//DTD SVG 1.1//EN" "http://www.w3.org/Graphics/SVG/1.1/DTD/svg11.dtd">
<svg version="1.1" id="Capa_1" xmlns="http://www.w3.org/2000/svg" xmlns:xlink="http://www.w3.org/1999/xlink" x="0px" y="0px"
	 width="16.002px" height="24.894px" viewBox="0 0 16.002 24.894" enable-background="new 0 0 16.002 24.894" xml:space="preserve">
<path d="M12.551,4.447C12.551,1.991,10.946,0,8.001,0C5.053,0,3.555,1.991,3.555,4.447v1.06h8.996
	C12.551,5.507,12.551,4.447,12.551,4.447z M8.001,16.004c2.944,0,4.55-1.99,4.55-4.444V6.283H3.555v5.276
	C3.555,14.014,5.053,16.004,8.001,16.004z M14.225,5.335v6.225c0,3.431-2.301,6.224-6.224,6.224c-3.921,0-6.224-2.793-6.224-6.224
	V5.335c-0.991-0.99-1.778,0-1.778,0v6.21c0,0.003,0,0.01,0,0.015c0,4.118,3.112,7.507,7.113,7.947v2.763l-3.544,0.009l-0.903,2.615
	h10.38L12.16,22.27H8.89v-2.763c4.001-0.442,7.111-3.831,7.111-7.947h0.001V5.335C14.913,4.245,14.225,5.335,14.225,5.335z"/>
</svg>
