<?xml version="1.0" encoding="iso-8859-1"?>
<!-- Generator: Adobe Illustrator 17.0.0, SVG Export Plug-In . SVG Version: 6.00 Build 0)  -->
<!DOCTYPE svg PUBLIC "-//W3C//DTD SVG 1.1//EN" "http://www.w3.org/Graphics/SVG/1.1/DTD/svg11.dtd">
<svg version="1.1" id="Capa_1" xmlns="http://www.w3.org/2000/svg" xmlns:xlink="http://www.w3.org/1999/xlink" x="0px" y="0px"
	 width="64px" height="64px" viewBox="0 0 64 64" style="enable-background:new 0 0 64 64;" xml:space="preserve">
<circle cx="41.746" cy="13.917" r="8.676"/>
<path d="M22.969,37.919c0.724,0,1.366-0.326,1.807-0.832L39.38,23.64c-2.899-0.703-5.305-2.67-6.602-5.283L21.241,33.714
	c-0.425,0.594-0.677,1.111-0.677,1.799C20.564,36.841,21.642,37.919,22.969,37.919z"/>
<path d="M15.95,50.845c4.853,3.729,12.313-3.334,12.592-3.604c0.08-0.07,7.949-6.998,11.617-2.895
	c0.766,0.854,1.086,1.842,0.984,3.021c-0.385,4.371-6.455,10.035-8.762,11.848c-0.576,0.453-0.676,1.289-0.223,1.865
	c0.262,0.334,0.65,0.508,1.045,0.508c0.285,0,0.576-0.094,0.816-0.283c0.377-0.295,9.203-7.289,9.768-13.703
	c0.17-1.924-0.385-3.615-1.648-5.027c-1.617-1.809-4.674-3.424-10.037-0.85c-2.936,1.408-5.232,3.449-5.363,3.566
	c-1.578,1.51-6.65,5.383-9.172,3.447c-0.549-0.422-0.831-0.932-0.89-1.605c-0.199-2.324,2.257-5.668,3.479-7.068l2.721-0.949
	c0,0-0.545-0.061-1.828-1.211c-1.2-1.078-1.518-2.244-1.518-2.244l-1.225,2.488c-0.872,0.973-4.598,5.375-4.274,9.207
	C14.151,48.767,14.814,49.974,15.95,50.845z"/>
</svg>
